<svg width="24" height="23" viewBox="0 0 54 53" fill="none" xmlns="http://www.w3.org/2000/svg">
<path d="M49.6547 43.4766C46.6962 38.4699 42.1032 34.5893 36.6188 32.4625C39.3105 30.4811 41.2988 27.7186 42.302 24.5665C43.3053 21.4143 43.2726 18.0323 42.2086 14.8994C41.1446 11.7664 39.1032 9.04154 36.3736 7.11061C33.6441 5.17968 30.3647 4.14063 27 4.14062C23.6353 4.14063 20.3559 5.17968 17.6264 7.11061C14.8968 9.04154 12.8554 11.7664 11.7914 14.8994C10.7274 18.0323 10.6947 21.4143 11.698 24.5665C12.7012 27.7186 14.6895 30.4811 17.3813 32.4625C11.8968 34.5893 7.30383 38.4699 4.34532 43.4766C4.00966 44.0476 3.91887 44.7261 4.09292 45.3629C4.26698 45.9996 4.69163 46.5424 5.27345 46.8719C5.85526 47.2013 6.5466 47.2904 7.19535 47.1196C7.84411 46.9488 8.39716 46.532 8.73282 45.9609C10.5843 42.8139 13.2471 40.2006 16.4536 38.3837C19.6601 36.5668 23.2975 35.6103 27 35.6103C30.7026 35.6103 34.3399 36.5668 37.5464 38.3837C40.753 40.2006 43.4158 42.8139 45.2672 45.9609C45.4911 46.3374 45.8113 46.6501 46.196 46.8679C46.5808 47.0858 47.0168 47.2013 47.4609 47.2031C47.9055 47.2066 48.3428 47.0922 48.7266 46.8719C49.0148 46.7089 49.2675 46.4917 49.4701 46.2328C49.6728 45.9739 49.8215 45.6784 49.9076 45.363C49.9938 45.0477 50.0159 44.7188 49.9725 44.3951C49.9291 44.0714 49.8211 43.7593 49.6547 43.4766ZM16.0313 19.875C16.0313 17.7458 16.6746 15.6643 17.8798 13.8939C19.0851 12.1235 20.7982 10.7437 22.8024 9.92886C24.8067 9.11403 27.0122 8.90084 29.1399 9.31623C31.2676 9.73163 33.2221 10.757 34.7561 12.2626C36.2901 13.7682 37.3348 15.6864 37.758 17.7747C38.1812 19.8631 37.964 22.0277 37.1338 23.9948C36.3036 25.962 34.8977 27.6433 33.0939 28.8263C31.2901 30.0092 29.1694 30.6406 27 30.6406C24.0909 30.6406 21.301 29.5064 19.2439 27.4874C17.1869 25.4685 16.0313 22.7302 16.0313 19.875Z" fill="#F4F4F4"/>
</svg>
